<svg width="520" height="320" viewBox="0 0 520 320" fill="none" xmlns="http://www.w3.org/2000/svg">
  <defs>
    <linearGradient id="g" x1="40" y1="20" x2="460" y2="300" gradientUnits="userSpaceOnUse">
      <stop stop-color="#D4AF37" stop-opacity="0.95"/>
      <stop offset="0.5" stop-color="#E8D078" stop-opacity="0.55"/>
      <stop offset="1" stop-color="#B8960C" stop-opacity="0.9"/>
    </linearGradient>
    <filter id="soft" x="-20%" y="-20%" width="140%" height="140%">
      <feGaussianBlur in="SourceGraphic" stdDeviation="0.35"/>
    </filter>
  </defs>

  <!-- light line-art botanical spray (abstract, elegant) -->
  <g stroke="url(#g)" stroke-width="1.35" stroke-linecap="round" stroke-linejoin="round" filter="url(#soft)" opacity="0.9">
    <!-- main stem -->
    <path d="M70 290 C110 250, 155 215, 205 190 C270 156, 320 120, 365 70 C392 40, 415 25, 452 22" />
    <path d="M64 294 C118 262, 170 232, 225 210 C290 183, 348 145, 392 104 C416 82, 440 62, 474 52" opacity="0.65"/>

    <!-- leaves along stem -->
    <path d="M130 238 C116 226, 102 220, 86 220 C104 232, 117 244, 130 258" opacity="0.85"/>
    <path d="M182 210 C170 200, 160 192, 146 190 C162 200, 174 214, 182 228" opacity="0.82"/>
    <path d="M236 190 C222 178, 208 172, 192 172 C210 184, 224 196, 236 208" opacity="0.82"/>
    <path d="M290 164 C276 152, 262 146, 246 146 C264 158, 278 170, 290 182" opacity="0.8"/>
    <path d="M338 132 C322 122, 308 116, 292 116 C312 128, 326 140, 338 152" opacity="0.78"/>
    <path d="M386 96 C372 86, 360 78, 344 76 C362 88, 376 102, 386 116" opacity="0.76"/>

    <!-- small blooms -->
    <path d="M212 188 C206 176, 194 170, 182 174 C195 176, 205 184, 212 196 C218 186, 232 182, 244 188 C232 188, 220 192, 212 200" opacity="0.9"/>
    <path d="M318 122 C312 110, 300 104, 288 108 C301 110, 311 118, 318 130 C324 120, 338 116, 350 122 C338 122, 326 126, 318 134" opacity="0.88"/>
    <path d="M404 62 C398 50, 386 44, 374 48 C387 50, 397 58, 404 70 C410 60, 424 56, 436 62 C424 62, 412 66, 404 74" opacity="0.86"/>

    <!-- tiny sprigs -->
    <path d="M260 172 C252 156, 244 146, 234 138" opacity="0.6"/>
    <path d="M360 110 C352 94, 344 84, 334 76" opacity="0.58"/>
    <path d="M150 222 C138 210, 126 202, 114 196" opacity="0.62"/>
  </g>
</svg>
